<svg xmlns="http://www.w3.org/2000/svg" width="40" height="40" fill="none"><path fill="url(#paint0_linear)" d="M26.19 29.1A10.64 10.64 0 0120 30.96c-2.31 0-4.4-.63-6.28-1.88a11.2 11.2 0 01-3.94-5.06h20.44a11 11 0 01-4.03 5.06zM15.03 17.18a2.8 2.8 0 01-2.06.84c-.81 0-1.53-.28-2.16-.84a3.13 3.13 0 01-.84-2.16c0-.81.28-1.5.84-2.06a2.96 2.96 0 012.16-.94c.81 0 1.5.31 2.06.94.63.56.94 1.25.94 2.06s-.31 1.53-.94 2.16zm14.06 0a2.8 2.8 0 01-2.06.84c-.81 0-1.53-.28-2.16-.84a3.13 3.13 0 01-.84-2.16c0-.81.28-1.5.84-2.06a2.96 2.96 0 012.16-.94c.81 0 1.5.31 2.06.94.63.56.94 1.25.94 2.06s-.31 1.53-.94 2.16zM8.66 31.34A15.65 15.65 0 0020 36.04c4.38 0 8.13-1.57 11.25-4.7A15.5 15.5 0 0036.03 20c0-4.38-1.6-8.13-4.78-11.25A15.2 15.2 0 0020 3.97 15.5 15.5 0 008.66 8.75 15.34 15.34 0 003.96 20c0 4.38 1.57 8.16 4.7 11.34zM5.84 5.94A19.31 19.31 0 0120 .04a19 19 0 0114.06 5.9A19 19 0 0139.96 20c0 5.5-1.96 10.22-5.9 14.16A19.16 19.16 0 0120 39.96c-5.5 0-10.22-1.93-14.16-5.8A19.47 19.47 0 01.04 20c0-5.5 1.93-10.19 5.8-14.06z"/><defs><linearGradient id="paint0_linear" x1="20" x2="20" y1="-4" y2="44" gradientUnits="userSpaceOnUse"><stop stop-color="#BC9CFF"/><stop offset="1" stop-color="#8BA4F9"/></linearGradient></defs></svg>